<?xml version="1.0" encoding="iso-8859-1"?>
<!-- Generator: Adobe Illustrator 19.0.0, SVG Export Plug-In . SVG Version: 6.00 Build 0)  -->
<svg version="1.1" id="Layer_1" xmlns="http://www.w3.org/2000/svg" xmlns:xlink="http://www.w3.org/1999/xlink" x="0px" y="0px"
	 viewBox="0 0 480 480" style="enable-background:new 0 0 480 480;" xml:space="preserve">
<g>
	<g>
		<g>
			<path d="M470,60.827h-96.446V10c0-5.523-4.478-10-10-10H120.248c-5.522,0-10,4.477-10,10v50.827H10c-5.523,0-10,4.477-10,10
				v288.926c0,5.523,4.477,10,10,10h100.248V470c0,5.523,4.478,10,10,10h243.306c5.522,0,10-4.477,10-10V369.752H470
				c5.522,0,10-4.477,10-10V70.827C480,65.304,475.522,60.827,470,60.827z M130.248,20h223.306v40.827H130.248V20z M353.554,460
				H130.248V213.884h223.306V460z M460,349.752h-86.446V213.884h35.62c5.522,0,10-4.477,10-10c0-5.523-4.478-10-10-10h-45.62
				H120.248H86.033c-5.523,0-10,4.477-10,10c0,5.523,4.477,10,10,10h24.215v135.868H20V80.827h100.248h243.306H460V349.752z"/>
			<path d="M158.265,324.132h167.273c5.522,0,10-4.477,10-10s-4.478-10-10-10H158.265c-5.522,0-10,4.477-10,10
				S152.742,324.132,158.265,324.132z"/>
			<path d="M158.265,274.711h167.273c5.522,0,10-4.477,10-10s-4.478-10-10-10H158.265c-5.522,0-10,4.477-10,10
				S152.742,274.711,158.265,274.711z"/>
			<path d="M158.265,369.752h167.273c5.522,0,10-4.477,10-10s-4.478-10-10-10H158.265c-5.522,0-10,4.477-10,10
				C148.265,365.275,152.742,369.752,158.265,369.752z"/>
			<path d="M158.265,419.174h167.273c5.522,0,10-4.477,10-10s-4.478-10-10-10H158.265c-5.522,0-10,4.477-10,10
				C148.265,414.697,152.742,419.174,158.265,419.174z"/>
			<path d="M281.322,131.653c0,5.523,4.478,10,10,10h117.852c5.522,0,10-4.477,10-10c0-5.523-4.478-10-10-10H291.322
				C285.8,121.653,281.322,126.13,281.322,131.653z"/>
		</g>
	</g>
</g>
<g>
</g>
<g>
</g>
<g>
</g>
<g>
</g>
<g>
</g>
<g>
</g>
<g>
</g>
<g>
</g>
<g>
</g>
<g>
</g>
<g>
</g>
<g>
</g>
<g>
</g>
<g>
</g>
<g>
</g>
</svg>
