<?xml version="1.0" encoding="iso-8859-1"?>
<!-- Generator: Adobe Illustrator 19.0.0, SVG Export Plug-In . SVG Version: 6.00 Build 0)  -->
<svg version="1.1" id="Layer_1" xmlns="http://www.w3.org/2000/svg" xmlns:xlink="http://www.w3.org/1999/xlink" x="0px" y="0px"
	 viewBox="0 0 512 512" style="enable-background:new 0 0 512 512;" xml:space="preserve">
<g>
	<g>
		<path d="M438.747,41.679H322.84v-31.48C322.84,4.567,318.273,0,312.641,0H199.359c-5.633,0-10.199,4.567-10.199,10.199v31.48
			H73.253c-5.633,0-10.199,4.567-10.199,10.199v73.74c0,5.632,4.566,10.199,10.199,10.199h15.45v365.983
			c0,5.632,4.566,10.199,10.199,10.199h314.197c5.632,0,10.199-4.567,10.199-10.199V135.818h15.45
			c5.632,0,10.199-4.567,10.199-10.199v-73.74C448.947,46.246,444.38,41.679,438.747,41.679z M209.558,20.398h92.884v21.281h-92.884
			V20.398z M402.899,491.602h-81.128V212.183c0-5.632-4.567-10.199-10.199-10.199c-5.632,0-10.199,4.567-10.199,10.199v279.418
			h-90.746V169.435c0-5.632-4.566-10.199-10.199-10.199s-10.199,4.567-10.199,10.199v322.166h-81.128V135.818h293.798V491.602z
			 M428.548,115.419H83.452V62.077h345.096V115.419z"/>
	</g>
</g>
<g>
	<g>
		<path d="M311.572,159.236c-5.632,0-10.199,4.567-10.199,10.199v7.481c0,5.632,4.567,10.199,10.199,10.199
			c5.632,0,10.199-4.567,10.199-10.199v-7.481C321.772,163.803,317.204,159.236,311.572,159.236z"/>
	</g>
</g>
<g>
</g>
<g>
</g>
<g>
</g>
<g>
</g>
<g>
</g>
<g>
</g>
<g>
</g>
<g>
</g>
<g>
</g>
<g>
</g>
<g>
</g>
<g>
</g>
<g>
</g>
<g>
</g>
<g>
</g>
</svg>
