<?xml version="1.0" encoding="iso-8859-1"?>
<!-- Generator: Adobe Illustrator 19.0.0, SVG Export Plug-In . SVG Version: 6.00 Build 0)  -->
<svg version="1.1" id="Layer_1" xmlns="http://www.w3.org/2000/svg" xmlns:xlink="http://www.w3.org/1999/xlink" x="0px" y="0px"
	 viewBox="0 0 500.341 500.341" style="enable-background:new 0 0 500.341 500.341;" xml:space="preserve">
<g>
	<g>
		<path d="M478.726,328.07c-27.913,11.442-57.639,17.25-88.356,17.25c-129.832,0-235.457-105.625-235.457-235.462
			c0-30.644,5.803-60.327,17.255-88.24l8.865-21.615l-21.663,8.74C62.558,47.839,0,140.647,0,245.185
			c0,140.692,114.462,255.154,255.149,255.154c104.505,0,197.313-62.596,236.442-159.481l8.75-21.654L478.726,328.07z
			 M255.149,480.647c-129.832,0-235.457-105.625-235.457-235.462c0-88.76,48.875-168.365,126.279-208.615
			c-7.139,23.596-10.75,48.154-10.75,73.288c0,140.692,114.462,255.154,255.149,255.154c25.197,0,49.788-3.606,73.399-10.75
			C423.495,431.724,343.889,480.647,255.149,480.647z"/>
	</g>
</g>
<g>
</g>
<g>
</g>
<g>
</g>
<g>
</g>
<g>
</g>
<g>
</g>
<g>
</g>
<g>
</g>
<g>
</g>
<g>
</g>
<g>
</g>
<g>
</g>
<g>
</g>
<g>
</g>
<g>
</g>
</svg>
