<?xml version="1.0" encoding="UTF-8" standalone="no"?>
<!-- Created with Inkscape (http://www.inkscape.org/) -->

<svg
   xmlns:dc="http://purl.org/dc/elements/1.1/"
   xmlns:cc="http://creativecommons.org/ns#"
   xmlns:rdf="http://www.w3.org/1999/02/22-rdf-syntax-ns#"
   xmlns:svg="http://www.w3.org/2000/svg"
   xmlns="http://www.w3.org/2000/svg"
   xmlns:sodipodi="http://sodipodi.sourceforge.net/DTD/sodipodi-0.dtd"
   xmlns:inkscape="http://www.inkscape.org/namespaces/inkscape"
   width="512.03021mm"
   height="512.02997mm"
   viewBox="0 0 512.03021 512.02997"
   version="1.1"
   id="svg8"
   inkscape:version="0.92.5 (2060ec1f9f, 2020-04-08)"
   sodipodi:docname="rebel.svg">
  <defs
     id="defs2" />
  <sodipodi:namedview
     id="base"
     pagecolor="#ffffff"
     bordercolor="#666666"
     borderopacity="1.0"
     inkscape:pageopacity="0.0"
     inkscape:pageshadow="2"
     inkscape:zoom="0.16"
     inkscape:cx="-340.12166"
     inkscape:cy="355.22303"
     inkscape:document-units="mm"
     inkscape:current-layer="layer1"
     showgrid="false"
     inkscape:showpageshadow="false"
     inkscape:snap-bbox="true"
     inkscape:snap-global="false"
     fit-margin-top="0"
     fit-margin-left="0"
     fit-margin-right="0"
     fit-margin-bottom="0"
     inkscape:window-width="2160"
     inkscape:window-height="1367"
     inkscape:window-x="0"
     inkscape:window-y="0"
     inkscape:window-maximized="1" />
  <metadata
     id="metadata5">
    <rdf:RDF>
      <cc:Work
         rdf:about="">
        <dc:format>image/svg+xml</dc:format>
        <dc:type
           rdf:resource="http://purl.org/dc/dcmitype/StillImage" />
        <dc:title />
      </cc:Work>
    </rdf:RDF>
  </metadata>
  <g
     inkscape:label="Layer 1"
     inkscape:groupmode="layer"
     id="layer1"
     transform="translate(507.89292,-43.625309)">
    <path
       style="fill:#fff19a;fill-opacity:1;stroke-width:0.9355399"
       d="M 460.42383 0.62890625 C 456.27576 0.83781846 452.14083 1.0986815 448.02148 1.4101562 C 452.14148 1.0986174 456.27511 0.83785076 460.42383 0.62890625 z M 1474.8086 0.62890625 C 1478.9573 0.83785076 1483.0929 1.0986174 1487.2129 1.4101562 C 1483.0929 1.0986166 1478.9573 0.83785126 1474.8086 0.62890625 z M 393.34961 8.65625 C 389.3744 9.4139729 385.41615 10.220787 381.47656 11.074219 C 385.41616 10.220789 389.3744 9.4139712 393.34961 8.65625 z M 1542.8633 8.8496094 C 1546.5089 9.5522802 1550.1403 10.290978 1553.7559 11.074219 C 1550.1408 10.291093 1546.5084 9.552189 1542.8633 8.8496094 z M 346.52734 20.021484 C 342.70212 21.154532 338.89593 22.332892 335.11133 23.556641 C 338.89594 22.332894 342.70211 21.154529 346.52734 20.021484 z M 1588.707 20.021484 C 1592.5323 21.154529 1596.3365 22.332894 1600.1211 23.556641 C 1596.3365 22.332892 1592.5323 21.154532 1588.707 20.021484 z M 318.22266 29.365234 C 314.50134 30.722688 310.80061 32.125287 307.12305 33.570312 C 310.80062 32.12529 314.50133 30.722685 318.22266 29.365234 z M 1618.5195 29.925781 C 1621.7316 31.109654 1624.93 32.321052 1628.1094 33.570312 C 1624.9305 32.321234 1621.7312 31.109491 1618.5195 29.925781 z M 238.39648 67.085938 C 235.03384 69.069662 231.69622 71.09239 228.38672 73.154297 C 231.69623 71.092394 235.03383 69.069658 238.39648 67.085938 z M 228.38672 73.154297 C 225.07722 75.216204 221.79417 77.316241 218.53906 79.455078 C 221.79418 77.316245 225.07721 75.2162 228.38672 73.154297 z M 1696.8379 67.085938 C 1700.2005 69.069658 1703.5362 71.092394 1706.8457 73.154297 C 1703.5362 71.09239 1700.2005 69.069662 1696.8379 67.085938 z M 1706.8457 73.154297 C 1710.1552 75.2162 1713.4383 77.316245 1716.6934 79.455078 C 1713.4383 77.316241 1710.1552 75.216204 1706.8457 73.154297 z M 163.05469 121.93945 C 160.15224 124.51358 157.28069 127.12333 154.44141 129.76562 C 157.2807 127.12333 160.15223 124.51358 163.05469 121.93945 z M 1772.1777 121.93945 C 1775.0802 124.51358 1777.9517 127.12333 1780.791 129.76562 C 1777.9517 127.12333 1775.0802 124.51358 1772.1777 121.93945 z M 1852.5391 213.67773 C 1854.7159 216.90517 1856.8546 220.15895 1858.9551 223.44141 C 1856.8545 220.15895 1854.7159 216.90517 1852.5391 213.67773 z M 1921.457 369.71289 C 1922.4049 373.61561 1923.3048 377.53698 1924.1582 381.47656 C 1923.3048 377.53697 1922.4049 373.61561 1921.457 369.71289 z M 1935.0742 472.91016 C 1935.1793 477.08636 1935.2324 481.27609 1935.2324 485.47852 C 1935.2324 481.27609 1935.1793 477.08636 1935.0742 472.91016 z M 0 603.86523 L 0 1449.752 C 0 1718.7073 216.52512 1935.2305 485.48047 1935.2305 L 1449.7539 1935.2305 C 1718.7093 1935.2305 1935.2324 1718.7073 1935.2324 1449.752 L 1935.2324 603.86523 L 0 603.86523 z "
       id="rect6258"
       transform="matrix(0.26458333,0,0,0.26458333,-507.89292,43.625309)" />
    <path
       inkscape:connector-curvature="0"
       id="path6260"
       d="m -379.44292,43.625407 c -71.1611,0 -128.45,57.288403 -128.45,128.449493 v 31.3232 H 4.1371826 v -31.3232 c 0,-71.16109 -57.2883996,-128.449493 -128.4495026,-128.449493 z"
       style="fill:#4669ff;fill-opacity:1;stroke-width:0.24752825"
       inkscape:export-xdpi="12.69925"
       inkscape:export-ydpi="12.69925" />
    <path
       inkscape:connector-curvature="0"
       id="path6262"
       d="m -507.89292,187.5494 v 16.3779 H 4.1371826 v -16.3779 z"
       style="opacity:1;fill:#ffda00;fill-opacity:1;stroke-width:0.24752825"
       inkscape:export-xdpi="12.69925"
       inkscape:export-ydpi="12.69925" />
    <g
       aria-label="Rebel"
       transform="matrix(2.3237861,0,0,2.3237861,-1226.8203,-222.66543)"
       style="font-style:normal;font-weight:normal;font-size:40px;line-height:1.25;font-family:sans-serif;letter-spacing:0px;word-spacing:0px;fill:#ffffff;fill-opacity:1;stroke:none"
       id="flowRoot6270">
      <path
         d="m 382.99047,135.41118 q 5.32,0 7.84,2.04 2.56,2 2.56,6.08 0,2.28 -0.84,3.8 -0.84,1.52 -2.16,2.44 -1.28,0.88 -2.72,1.4 l 7.84,12.8 h -4.2 l -6.92,-11.8 h -5.68 v 11.8 h -3.6 v -28.56 z m -0.2,3.12 h -4.08 v 10.6 h 4.28 q 3.48,0 5.08,-1.36 1.6,-1.4 1.6,-4.08 0,-2.8 -1.68,-3.96 -1.68,-1.2 -5.2,-1.2 z"
         style="font-style:normal;font-variant:normal;font-weight:normal;font-stretch:normal;font-family:'Noto Sans';-inkscape-font-specification:'Noto Sans';letter-spacing:-2.19064164px"
         id="path6491" />
      <path
         d="m 405.59982,142.13118 q 2.76,0 4.72,1.2 2,1.2 3.04,3.4 1.08,2.16 1.08,5.08 v 2.12 h -14.68 q 0.08,3.64 1.84,5.56 1.8,1.88 5,1.88 2.04,0 3.6,-0.36 1.6,-0.4 3.28,-1.12 v 3.08 q -1.64,0.72 -3.24,1.04 -1.6,0.36 -3.8,0.36 -3.04,0 -5.4,-1.24 -2.32,-1.24 -3.64,-3.68 -1.28,-2.48 -1.28,-6.04 0,-3.52 1.16,-6.04 1.2,-2.52 3.32,-3.88 2.16,-1.36 5,-1.36 z m -0.04,2.88 q -2.52,0 -4,1.64 -1.44,1.6 -1.72,4.48 h 10.92 q -0.04,-2.72 -1.28,-4.4 -1.24,-1.72 -3.92,-1.72 z"
         style="font-style:normal;font-variant:normal;font-weight:normal;font-stretch:normal;font-family:'Noto Sans';-inkscape-font-specification:'Noto Sans';letter-spacing:-2.19064164px"
         id="path6493" />
      <path
         d="m 421.20914,133.57118 v 7.4 q 0,1.36 -0.08,2.56 -0.04,1.16 -0.12,1.84 h 0.2 q 0.92,-1.36 2.52,-2.28 1.6,-0.92 4.12,-0.92 4,0 6.4,2.8 2.44,2.76 2.44,8.28 0,5.52 -2.44,8.32 -2.44,2.8 -6.4,2.8 -2.52,0 -4.12,-0.92 -1.6,-0.92 -2.52,-2.2 h -0.28 l -0.72,2.72 h -2.52 v -30.4 z m 6.04,11.52 q -3.4,0 -4.72,1.96 -1.32,1.96 -1.32,6.08 v 0.16 q 0,3.96 1.28,6.08 1.32,2.08 4.84,2.08 2.88,0 4.28,-2.12 1.44,-2.12 1.44,-6.12 0,-8.12 -5.8,-8.12 z"
         style="font-style:normal;font-variant:normal;font-weight:normal;font-stretch:normal;font-family:'Noto Sans';-inkscape-font-specification:'Noto Sans';letter-spacing:-2.19064164px"
         id="path6495" />
      <path
         d="m 448.37849,142.13118 q 2.76,0 4.72,1.2 2,1.2 3.04,3.4 1.08,2.16 1.08,5.08 v 2.12 h -14.68 q 0.08,3.64 1.84,5.56 1.8,1.88 5,1.88 2.04,0 3.6,-0.36 1.6,-0.4 3.28,-1.12 v 3.08 q -1.64,0.72 -3.24,1.04 -1.6,0.36 -3.8,0.36 -3.04,0 -5.4,-1.24 -2.32,-1.24 -3.64,-3.68 -1.28,-2.48 -1.28,-6.04 0,-3.52 1.16,-6.04 1.2,-2.52 3.32,-3.88 2.16,-1.36 5,-1.36 z m -0.04,2.88 q -2.52,0 -4,1.64 -1.44,1.6 -1.72,4.48 h 10.92 q -0.04,-2.72 -1.28,-4.4 -1.24,-1.72 -3.92,-1.72 z"
         style="font-style:normal;font-variant:normal;font-weight:normal;font-stretch:normal;font-family:'Noto Sans';-inkscape-font-specification:'Noto Sans';letter-spacing:-2.19064164px"
         id="path6497" />
      <path
         d="m 463.98782,163.97118 h -3.52 v -30.4 h 3.52 z"
         style="font-style:normal;font-variant:normal;font-weight:normal;font-stretch:normal;font-family:'Noto Sans';-inkscape-font-specification:'Noto Sans';letter-spacing:-2.19064164px"
         id="path6499" />
    </g>
    <path
       id="path6272"
       d="m -507.89292,250.65 v 4.6847 H 4.1371826 V 250.65 Z"
       style="opacity:0.497;fill:#b3b3b3;fill-opacity:1;stroke-width:0.13238555"
       inkscape:connector-curvature="0"
       inkscape:export-xdpi="12.69925"
       inkscape:export-ydpi="12.69925" />
    <path
       inkscape:connector-curvature="0"
       style="opacity:0.497;fill:#b3b3b3;fill-opacity:1;stroke-width:0.13238555"
       d="m -507.89292,297.5426 v 4.6848 H 4.1371826 v -4.6848 z"
       id="path6274"
       inkscape:export-xdpi="12.69925"
       inkscape:export-ydpi="12.69925" />
    <path
       id="path6276"
       d="m -507.89292,344.43526 v 4.68473 H 4.1371826 v -4.68473 z"
       style="opacity:0.497;fill:#b3b3b3;fill-opacity:1;stroke-width:0.13238555"
       inkscape:connector-curvature="0"
       inkscape:export-xdpi="12.69925"
       inkscape:export-ydpi="12.69925" />
    <path
       inkscape:connector-curvature="0"
       style="opacity:0.497;fill:#b3b3b3;fill-opacity:1;stroke-width:0.13238555"
       d="m -507.89292,391.3279 v 4.68476 H 4.1371826 v -4.68476 z"
       id="path6278"
       inkscape:export-xdpi="12.69925"
       inkscape:export-ydpi="12.69925" />
    <path
       id="path6280"
       d="m -507.89292,438.22055 v 4.68476 H 4.1371826 v -4.68476 z"
       style="opacity:0.497;fill:#b3b3b3;fill-opacity:1;stroke-width:0.13238555"
       inkscape:connector-curvature="0"
       inkscape:export-xdpi="12.69925"
       inkscape:export-ydpi="12.69925" />
    <path
       id="path6282"
       d="m -494.21682,485.1132 c 0.7958,1.58062 1.6217,3.14299 2.48,4.68501 h 479.717903 c 0.8583,-1.54197 1.6841,-3.10441 2.4798996,-4.68501 z"
       style="opacity:0.497;fill:#b3b3b3;fill-opacity:1;stroke-width:0.13238555"
       inkscape:connector-curvature="0"
       inkscape:export-xdpi="12.69925"
       inkscape:export-ydpi="12.69925" />
    <path
       id="path6284"
       d="m -453.91382,532.00597 c 2.3052,1.63753 4.6683,3.19902 7.0838,4.68445 h 389.904303 c 2.4154,-1.48543 4.7786,-3.04692 7.0838,-4.68445 z"
       style="opacity:0.497;fill:#b3b3b3;fill-opacity:1;stroke-width:0.24752825"
       inkscape:connector-curvature="0"
       inkscape:export-xdpi="12.69925"
       inkscape:export-ydpi="12.69925" />
    <g
       style="fill:#4669ff;fill-opacity:1"
       transform="matrix(0.81969942,0,0,0.81969942,-400.25482,202.08574)"
       id="g6348"
       inkscape:export-xdpi="12.69925"
       inkscape:export-ydpi="12.69925">
      <g
         style="fill:#4669ff;fill-opacity:1"
         id="g6316">
        <g
           style="fill:#4669ff;fill-opacity:1"
           id="g6314">
          <path
             style="fill:#4669ff;fill-opacity:1"
             inkscape:connector-curvature="0"
             d="m 181.014,68.957 c -56.864,0 -103.127,46.263 -103.127,103.127 0,19.826 5.642,39.084 16.316,55.69 7.799,12.132 17.992,22.433 29.904,30.321 -4.212,4.332 -6.812,10.236 -6.812,16.74 0,6.402 2.521,12.223 6.616,16.535 -4.095,4.313 -6.616,10.133 -6.616,16.535 0,13.253 10.782,24.035 24.035,24.035 h 3.155 v 3.228 c 0,15.061 15.644,26.857 35.615,26.857 h 1.828 c 19.971,0 35.614,-11.797 35.614,-26.857 v -3.228 h 3.155 c 13.254,0 24.035,-10.782 24.035,-24.035 0,-6.402 -2.521,-12.223 -6.615,-16.535 4.095,-4.313 6.615,-10.133 6.615,-16.535 0,-6.51 -2.606,-12.42 -6.823,-16.752 11.913,-7.888 22.116,-18.176 29.915,-30.31 10.674,-16.606 16.316,-35.864 16.316,-55.69 C 284.141,115.22 237.878,68.957 181.014,68.957 Z m 21.528,266.213 c 0,5.608 -8.466,11.857 -20.614,11.857 H 180.1 c -12.148,0 -20.615,-6.249 -20.615,-11.857 v -3.228 h 43.058 v 3.228 z m 18.155,-18.229 H 141.33 c -4.982,0 -9.035,-4.053 -9.035,-9.035 0,-4.982 4.053,-9.035 9.035,-9.035 h 79.368 c 4.982,0 9.035,4.053 9.035,9.035 0,4.983 -4.053,9.035 -9.036,9.035 z m 0,-33.07 H 141.33 c -4.982,0 -9.035,-4.053 -9.035,-9.035 0,-4.983 4.053,-9.035 9.035,-9.035 h 79.368 c 4.982,0 9.035,4.053 9.035,9.035 0,4.982 -4.053,9.035 -9.036,9.035 z m -57.05,-86.666 h 34.734 c -7.839,18.796 -12.217,42.332 -14,53.596 h -6.734 c -1.785,-11.276 -6.166,-34.809 -14,-53.596 z m 57.002,53.596 H 199.59 c 2.306,-13.774 7.814,-41.184 17.273,-57.299 1.361,-2.319 1.377,-5.189 0.041,-7.523 -1.336,-2.334 -3.82,-3.773 -6.509,-3.773 h -58.764 c -2.689,0 -5.172,1.439 -6.508,3.773 -1.337,2.333 -1.321,5.204 0.04,7.522 9.444,16.091 14.961,43.519 17.27,57.3 h -21.055 c -29.513,-14.898 -48.492,-45.588 -48.492,-78.717 0,-48.594 39.534,-88.127 88.127,-88.127 48.594,0 88.127,39.533 88.127,88.127 0.001,33.128 -18.978,63.818 -48.491,78.717 z"
             id="path6286" />
          <g
             style="fill:#4669ff;fill-opacity:1"
             id="g6312">
            <g
               style="fill:#4669ff;fill-opacity:1"
               id="g6290">
              <path
                 style="fill:#4669ff;fill-opacity:1"
                 inkscape:connector-curvature="0"
                 d="m 181.014,47.08 c -4.143,0 -7.5,-3.357 -7.5,-7.5 V 7.5 c 0,-4.143 3.357,-7.5 7.5,-7.5 4.143,0 7.5,3.357 7.5,7.5 v 32.08 c 0,4.143 -3.358,7.5 -7.5,7.5 z"
                 id="path6288" />
            </g>
            <g
               style="fill:#4669ff;fill-opacity:1"
               id="g6300">
              <g
                 style="fill:#4669ff;fill-opacity:1"
                 id="g6294">
                <path
                   style="fill:#4669ff;fill-opacity:1"
                   inkscape:connector-curvature="0"
                   d="m 85.372,86.729 c -1.919,0 -3.839,-0.732 -5.303,-2.196 L 57.385,61.849 c -2.929,-2.93 -2.929,-7.678 0,-10.607 2.929,-2.928 7.678,-2.928 10.606,0 l 22.684,22.684 c 2.929,2.93 2.929,7.678 0,10.607 -1.464,1.463 -3.384,2.196 -5.303,2.196 z"
                   id="path6292" />
              </g>
              <g
                 style="fill:#4669ff;fill-opacity:1"
                 id="g6298">
                <path
                   style="fill:#4669ff;fill-opacity:1"
                   inkscape:connector-curvature="0"
                   d="m 276.672,86.713 c -1.92,0 -3.84,-0.732 -5.304,-2.196 -2.929,-2.93 -2.929,-7.678 0,-10.607 l 22.684,-22.684 c 2.929,-2.928 7.678,-2.928 10.606,0 2.93,2.93 2.93,7.678 0,10.607 l -22.684,22.684 c -1.464,1.463 -3.383,2.196 -5.302,2.196 z"
                   id="path6296" />
              </g>
            </g>
            <g
               style="fill:#4669ff;fill-opacity:1"
               id="g6310">
              <g
                 style="fill:#4669ff;fill-opacity:1"
                 id="g6304">
                <path
                   style="fill:#4669ff;fill-opacity:1"
                   inkscape:connector-curvature="0"
                   d="M 46.619,174.916 H 14.541 c -4.142,0 -7.5,-3.357 -7.5,-7.5 0,-4.143 3.358,-7.5 7.5,-7.5 H 46.62 c 4.142,0 7.5,3.357 7.5,7.5 -10e-4,4.143 -3.359,7.5 -7.501,7.5 z"
                   id="path6302" />
              </g>
              <g
                 style="fill:#4669ff;fill-opacity:1"
                 id="g6308">
                <path
                   style="fill:#4669ff;fill-opacity:1"
                   inkscape:connector-curvature="0"
                   d="m 347.487,174.916 h -32.079 c -4.142,0 -7.5,-3.357 -7.5,-7.5 0,-4.143 3.358,-7.5 7.5,-7.5 h 32.079 c 4.142,0 7.5,3.357 7.5,7.5 0,4.143 -3.358,7.5 -7.5,7.5 z"
                   id="path6306" />
              </g>
            </g>
          </g>
        </g>
      </g>
      <g
         style="fill:#4669ff;fill-opacity:1"
         id="g6318" />
      <g
         style="fill:#4669ff;fill-opacity:1"
         id="g6320" />
      <g
         style="fill:#4669ff;fill-opacity:1"
         id="g6322" />
      <g
         style="fill:#4669ff;fill-opacity:1"
         id="g6324" />
      <g
         style="fill:#4669ff;fill-opacity:1"
         id="g6326" />
      <g
         style="fill:#4669ff;fill-opacity:1"
         id="g6328" />
      <g
         style="fill:#4669ff;fill-opacity:1"
         id="g6330" />
      <g
         style="fill:#4669ff;fill-opacity:1"
         id="g6332" />
      <g
         style="fill:#4669ff;fill-opacity:1"
         id="g6334" />
      <g
         style="fill:#4669ff;fill-opacity:1"
         id="g6336" />
      <g
         style="fill:#4669ff;fill-opacity:1"
         id="g6338" />
      <g
         style="fill:#4669ff;fill-opacity:1"
         id="g6340" />
      <g
         style="fill:#4669ff;fill-opacity:1"
         id="g6342" />
      <g
         style="fill:#4669ff;fill-opacity:1"
         id="g6344" />
      <g
         style="fill:#4669ff;fill-opacity:1"
         id="g6346" />
    </g>
    <path
       id="path6350"
       d="m -407.93992,203.4513 v 349.05572 c 2.1187,0.47639 4.2575,0.90038 6.4151,1.27125 V 203.4513 Z"
       style="opacity:0.49000005;fill:#8d8d8d;fill-opacity:1;stroke-width:0.24752825"
       inkscape:connector-curvature="0"
       inkscape:export-xdpi="12.69925"
       inkscape:export-ydpi="12.69925" />
    <path
       id="path6352"
       d="m -430.90952,203.4513 v 341.55076 c 2.1088,0.91829 4.2484,1.78012 6.4151,2.58691 V 203.4513 Z"
       style="opacity:0.49000005;fill:#8d8d8d;fill-opacity:1;stroke-width:0.24752825"
       inkscape:connector-curvature="0"
       inkscape:export-xdpi="12.69925"
       inkscape:export-ydpi="12.69925" />
  </g>
</svg>
